<?xml version="1.0" encoding="UTF-8" standalone="no"?>
<svg width="176px" height="219px" viewBox="0 0 176 219" version="1.1" xmlns="http://www.w3.org/2000/svg" xmlns:xlink="http://www.w3.org/1999/xlink" xmlns:sketch="http://www.bohemiancoding.com/sketch/ns">
    <!-- Generator: Sketch 3.4.2 (15855) - http://www.bohemiancoding.com/sketch -->
    <title>logo</title>
    <desc>Created with Sketch.</desc>
    <defs>
        <linearGradient x1="50%" y1="0%" x2="50%" y2="100%" id="linearGradient-1">
            <stop stop-color="#2C7317" offset="0.982541454%"></stop>
            <stop stop-color="#E7B850" offset="100%"></stop>
        </linearGradient>
        <filter x="-50%" y="-50%" width="200%" height="200%" filterUnits="objectBoundingBox" id="filter-2">
            <feOffset dx="0" dy="1" in="SourceAlpha" result="shadowOffsetInner1"></feOffset>
            <feGaussianBlur stdDeviation="1.5" in="shadowOffsetInner1" result="shadowBlurInner1"></feGaussianBlur>
            <feComposite in="shadowBlurInner1" in2="SourceAlpha" operator="arithmetic" k2="-1" k3="1" result="shadowInnerInner1"></feComposite>
            <feColorMatrix values="0 0 0 0 0   0 0 0 0 0   0 0 0 0 0  0 0 0 0.35 0" in="shadowInnerInner1" type="matrix" result="shadowMatrixInner1"></feColorMatrix>
            <feMerge>
                <feMergeNode in="SourceGraphic"></feMergeNode>
                <feMergeNode in="shadowMatrixInner1"></feMergeNode>
            </feMerge>
        </filter>
    </defs>
    <g id="Page-1" stroke="none" stroke-width="1" fill="none" fill-rule="fill" sketch:type="MSPage">
        <g id="bulbo-logo" sketch:type="MSArtboardGroup" transform="translate(-128.000000, -76.000000)">
            <g id="logo" sketch:type="MSLayerGroup" transform="translate(128.000000, 76.000000)">
                <path d="M88,219 L88,219 C39.7872091,219 0,186.354085 0,145 C0,122.791642 3.50647743,113.014733 18.4799495,95.9014441 C23.4535922,90.2170321 29.163853,86.4827084 36.0840969,83.7904223 C38.840375,82.7181062 40.1502354,82.3125558 45.5962788,80.731678 C53.603355,78.4073833 55.7069521,77.1354901 57.3783858,73.4010832 C58.9567906,69.8745265 59.1253849,64.439918 57.8004326,57.4293935 C56.9255769,52.8003983 55.4796566,47.7968525 53.4359047,41.9745551 C52.4757299,39.2391824 49.2092698,30.5579301 48.6817147,29.029266 C47.8721945,26.6835689 47.3909212,24.9793214 47.1721686,23.2933964 C46.9180928,21.3352345 46.9852141,19.5083851 47.8057574,17.3938406 C49.4429413,13.1748084 53.5276712,10.5054215 58.0525364,10.6963945 C63.8575347,10.9413959 68.9369545,13.7574713 73.5411048,18.2984008 C76.7724232,21.485349 79.7458854,25.5153239 82.5594291,30.2260968 C84.6885972,33.7910059 86.6115327,37.5555251 88.3148496,41.3141938 C88.9098059,42.6270697 89.4370787,43.8504321 89.8929678,44.9569522 C90.1759083,45.6436968 90.378533,46.1559765 90.4966791,46.4659681 L71.1930329,50.9285247 C71.1034521,49.9385321 70.9748786,48.2485355 70.8477396,46.0452418 C70.551769,40.9161277 70.4253208,35.6739815 70.5669611,30.7110595 C70.7582313,24.0091586 71.4104905,18.4435969 72.7758835,14.0542986 C73.8369139,10.6434281 75.3387135,7.81361614 77.7286111,5.58197427 C81.3679318,2.18364431 86.3451133,1.08473717 91.1665214,2.69427016 C93.7705505,3.56357444 95.5406418,5.13006387 96.8935286,7.05774704 C97.6140977,8.08446189 98.1694138,9.16946153 98.6556186,10.3714714 C99.3197819,12.0134353 99.8755756,13.9467581 100.394853,16.2554753 C101.203098,19.8489527 101.933821,24.4331491 102.612258,29.8405432 C103.148425,34.1139917 103.622199,38.6654758 104.030782,43.2131605 C104.173521,44.8019109 104.29806,46.2781177 104.403798,47.6053732 C104.440993,48.0722576 104.47324,48.4880205 104.50046,48.8480848 C104.517096,49.0681575 104.528538,49.2232818 104.534703,49.3088693 L84.5790825,49.4187659 C84.5934798,49.1826319 84.6206994,48.7592628 84.6604811,48.1750059 C84.7260768,47.2116274 84.8036865,46.1407029 84.8930872,44.9883398 C85.1491329,41.6879479 85.4493573,38.3839812 85.7936736,35.2764093 C86.1886357,31.7117426 86.61772,28.6226433 87.0959813,26.0932656 C88.3263324,19.5863155 89.6592704,14.4760088 91.6167966,10.2913346 C93.4922461,6.28211904 95.8169205,3.28439263 99.6225976,1.54703414 C105.452978,-1.11463707 111.255568,0.953332544 115.314032,5.60714412 C117.688776,8.33024561 118.501465,11.3435189 118.765954,15.1461474 C118.921793,17.3866938 118.851811,19.9833516 118.598522,23.1146119 C118.241742,27.5252582 117.911385,30.0496732 116.262898,41.7735636 C116.034591,43.3972652 115.858938,44.6608707 115.692532,45.8824274 C114.658682,53.4717763 114.09543,58.7467586 113.92351,63.1076119 C113.829553,65.4908977 113.866844,67.4462356 114.026947,68.9242014 C114.094884,69.5513545 114.180612,70.05023 114.270852,70.4034702 C114.298227,70.5106297 114.320431,70.5827496 114.333266,70.617453 C114.319664,70.5806743 114.288751,70.5110835 114.233617,70.4080206 C114.854203,71.5681007 115.383581,72.3953201 115.833631,72.9590177 C116.432255,73.708807 116.731731,73.8934305 118.635636,74.5602811 C119.033508,74.6996373 121.889743,75.6504959 122.916427,76.0119844 C125.075045,76.7720188 127.079825,77.564793 129.223043,78.5364136 C134.676082,81.0085303 140.470742,84.4127589 147.113357,89.2134368 C153.419667,93.7710635 158.646424,98.8447688 162.854832,104.358688 C168.742172,112.072369 172.433497,120.336491 174.367399,128.897066 C175.680655,134.710304 176,139.064556 176,145 C176,186.354085 136.212791,219 88,219 L88,219 Z" id="Shape" fill-opacity="0.85" fill="#765A14" sketch:type="MSShapeGroup"></path>
                <path d="M88,209 C131.07821,209 166,180.346224 166,145 C166,137.811246 166,115.201169 141.255859,97.3183562 C116.511719,79.4355437 112.477234,88.3247616 105.416016,75.1250006 C99.5773575,64.2106099 112.528873,17.6282326 107.777344,12.1796875 C101.8125,5.33984391 98.4204102,20.0258778 96.921875,27.9511712 C95.4233398,35.8764646 94.5605469,50.0273455 94.5605469,50.0273455 C94.5605469,50.0273455 91.9287109,13.491211 88,12.1796875 C77.4076873,8.64365065 81.1523438,50.0273437 81.1523438,50.0273437 C81.1523438,50.0273437 70.171875,21.2167967 57.6308594,20.6875 C53.2464846,20.5024564 75.5605469,57.2558594 66.5058594,77.4863281 C59.046405,94.1526414 39.9903902,86.503306 26.0058594,102.486327 C12.0213285,118.469348 10,126.219846 10,145 C10,180.346224 44.9217895,209 88,209 Z" id="bulbo" fill="url(#linearGradient-1)" filter="url(#filter-2)" sketch:type="MSShapeGroup"></path>
            </g>
        </g>
    </g>
</svg>
