<?xml version="1.0" encoding="UTF-8"?>
<svg width="106px" height="117px" viewBox="0 0 106 117" version="1.1" xmlns="http://www.w3.org/2000/svg" xmlns:xlink="http://www.w3.org/1999/xlink">
    <!-- Generator: Sketch 41.2 (35397) - http://www.bohemiancoding.com/sketch -->
    <title>logo</title>
    <desc>Created with Sketch.</desc>
    <defs>
        <linearGradient x1="50%" y1="0%" x2="50%" y2="100%" id="linearGradient-1">
            <stop stop-color="#7BF6E0" offset="0%"></stop>
            <stop stop-color="#45E9BC" offset="100%"></stop>
        </linearGradient>
    </defs>
    <g id="Page-1" stroke="none" stroke-width="1" fill="none" fill-rule="evenodd">
        <g id="Artboard" transform="translate(-230.000000, -209.000000)" fill="url(#linearGradient-1)">
            <path d="M303.601562,213 C300.201528,213 296.281122,217.637673 292.482321,224.059502 C290.181013,215.654827 287.072881,209 283,209 C278.96862,209 275.882428,215.519898 273.588278,223.803133 C269.83713,217.514614 265.975946,213 262.621323,213 C257.783333,213 256.72146,222.38995 257.056768,232.948808 C240.908497,239.44987 230,252.589718 230,271.5 C230,299.39038 273.588278,312.90625 283,325.4375 C292.482321,312.90625 336,299.39038 336,271.5 C336,252.675731 325.190511,239.569522 309.163256,233.03793 C309.507369,222.442845 308.45316,213 303.601562,213 Z" id="logo"></path>
        </g>
    </g>
</svg>