<?xml version="1.0" encoding="UTF-8" standalone="no"?>
<svg width="213px" height="235px" viewBox="0 0 213 235" version="1.1" xmlns="http://www.w3.org/2000/svg" xmlns:xlink="http://www.w3.org/1999/xlink" xmlns:sketch="http://www.bohemiancoding.com/sketch/ns">
    <!-- Generator: Sketch 3.4.2 (15855) - http://www.bohemiancoding.com/sketch -->
    <title>logo</title>
    <desc>Created with Sketch.</desc>
    <defs>
        <radialGradient cx="50%" cy="0%" fx="50%" fy="0%" r="70.3255936%" id="radialGradient-1">
            <stop stop-color="#558D35" offset="0%"></stop>
            <stop stop-color="#B57D21" offset="100%"></stop>
        </radialGradient>
    </defs>
    <g id="Page-1" stroke="none" stroke-width="1" fill="none" fill-rule="evenodd" sketch:type="MSPage">
        <g id="v2" sketch:type="MSArtboardGroup" transform="translate(-111.000000, -126.000000)" stroke="#979797">
            <g id="logo" sketch:type="MSLayerGroup" transform="translate(112.000000, 127.000000)">
                <g id="heta" transform="translate(61.000000, 0.000000)" sketch:type="MSShapeGroup">
                    <path d="M45,0 C61.5,-2.23498041e-15 78,73 78,73 L12,73 C12,73 28.5,2.23498041e-15 45,0 Z" id="Triangle-1" fill="#4E892C"></path>
                    <path d="M6,0 C20.2193518,-2.35407204e-15 60,73 60,73 L11.3535156,73 C11.3535156,73 -8.21935175,2.35407204e-15 6,0 Z" id="Triangle-2" fill="#498328"></path>
                    <path d="M83,0 C68.7806482,-2.35407204e-15 29,73 29,73 L77.6464844,73 C77.6464844,73 97.2193518,2.35407204e-15 83,0 Z" id="Triangle-2" fill="#3F6626"></path>
                </g>
                <ellipse id="Oval-2" fill="url(#radialGradient-1)" sketch:type="MSShapeGroup" cx="105.5" cy="143.5" rx="105.5" ry="89.5"></ellipse>
            </g>
        </g>
    </g>
</svg>